# AST/ASF file generated using VICON BodyLanguage
# -----------------------------------------------
:version 1.10
:name VICON
:units
  mass 1.0
  length 0.45
  angle deg
:documentation
   .ast/.asf automatically generated from VICON data using
   VICON BodyBuilder and BodyLanguage model FoxedUp or BRILLIANT.MOD
:root
   order TX TY TZ RX RY RZ
   axis XYZ
   position 0 0 0  
   orientation 0 0 0 
:bonedata
  begin
     id 1 
     name lhipjoint
     direction 0.693937 -0.600361 0.397515 
     length 2.37164 
     axis 0 0 0  XYZ
  end
  begin
     id 2 
     name lfemur
     direction 0.34202 -0.939693 0  
     length 6.18497  
     axis 0 0 20  XYZ
    dof rx ry rz
    limits (-160.0 20.0)
           (-70.0 70.0)
           (-60.0 70.0)
  end
  begin
     id 3 
     name ltibia
     direction 0.34202 -0.939693 0   
     length 6.91601   
     axis 0 0 20   XYZ
    dof rx
    limits (-10.0 170.0)
  end
  begin
     id 4 
     name lfoot
     direction 0.0978718 -0.2689 0.958182   
     length 1.81453   
     axis -90 7.62852e-016 20   XYZ
    dof rx rz
    limits (-45.0 90.0)
           (-70.0 20.0)
  end
  begin
     id 5 
     name ltoes
     direction 1.53569e-011 -4.21951e-011 1   
     length 0.912052   
     axis -90 7.62852e-016 20   XYZ
    dof rx
    limits (-90.0 20.0)
  end
  begin
     id 6 
     name rhipjoint
     direction -0.643996 -0.637876 0.422354   
     length 2.23216  
     axis 0 0 0  XYZ 
  end
  begin
     id 7 
     name rfemur
     direction -0.34202 -0.939693 0   
     length 6.15404   
     axis 0 0 -20   XYZ
    dof rx ry rz
    limits (-160.0 20.0)
           (-70.0 70.0)
           (-70.0 60.0)
  end
  begin
     id 8 
     name rtibia
     direction -0.34202 -0.939693 0   
     length 6.86744   
     axis 0 0 -20   XYZ
    dof rx
    limits (-10.0 170.0)
 end
 begin
     id 9 
     name rfoot
     direction -0.118701 -0.326127 0.937844   
     length 1.9243  
     axis -90 -7.62852e-016 -20   XYZ
    dof rx rz
    limits (-45.0 90.0)
           (-20.0 70.0)
  end
  begin
     id 10 
     name rtoes
     direction -1.5356e-011 -4.2181e-011 1   
     length 0.958865   
     axis -90 -7.62852e-016 -20   XYZ
    dof rx
    limits (-90.0 20.0)
  end
  begin
     id 11 
     name lowerback
     direction 0.0310826 0.968686 -0.246334   
     length 2.00021   
     axis 0 0 0   XYZ
    dof rx ry rz
    limits (-20.0 45.0)
           (-30.0 30.0)
           (-30.0 30.0)
  end
  begin
     id 12 
     name upperback
     direction -0.0152834 0.999474 -0.0286152   
     length 2.03728   
     axis 0 0 0   XYZ
    dof rx ry rz
    limits (-20.0 45.0)
           (-30.0 30.0)
           (-30.0 30.0)
  end
  begin
     id 13 
     name thorax
     direction -0.0323701 0.996236 0.0804149   
     length 2.16   
     axis 0 0 0   XYZ
    dof rx ry rz
    limits (-20.0 45.0)
           (-30.0 30.0)
           (-30.0 30.0)
  end
  begin
     id 14 
     name lowerneck
     direction 0.0307935 0.982251 0.185027   
     length 1.43558   
     axis 0 0 0   XYZ
    dof rx ry rz
    limits (-20.0 45.0)
           (-30.0 30.0)
           (-30.0 30.0)
  end
  begin
     id 15 
     name upperneck
     direction -0.0927153 0.994775 0.0427454   
     length 1.44603   
     axis 0 0 0   XYZ
    dof rx ry rz
    limits (-20.0 45.0)
           (-30.0 30.0)
           (-30.0 30.0)
  end
  begin
     id 16
     name head
     direction -0.0341265 0.999406 -0.00472033  
     length 1.45931  
     axis 0 0 0   XYZ
    dof rx ry rz
    limits (-20.0 45.0)
           (-30.0 30.0)
           (-30.0 30.0)
  end
  begin
     id 17 
     name lclavicle
     direction 0.820755 0.555306 -0.134151  
     length 2.66075  
     axis 0 0 0   XYZ
    dof ry rz
    limits (-20.0 10.0)
           (0.0 20.0)
  end
  begin
     id 18 
     name lhumerus
     direction 1 -4.48971e-011 5.24853e-027   
     length 5.0546   
     axis -180 -30 -90   XYZ
    dof rx ry rz
    limits (-60.0 90.0)
           (-90.0 90.0)
           (-90.0 90.0)
  end
  begin
     id 19
     name lradius
     direction 1 -4.48971e-011 2.76575e-028   
     length 3.39013   
     axis -180 -30 -90   XYZ
    dof rx
    limits (-10.0 170.0)
  end
  begin
     id 20
     name lwrist
     direction 1 -4.48939e-011 -2.27826e-027   
     length 1.69507   
     axis 2.17013e-015 90 90   XYZ
    dof ry
    limits (-180.0 0.0)
 end
  begin
     id 21 
     name lhand
     direction 1 -4.49009e-011 -4.55652e-027   
     length 0.572425   
     axis 2.90745e-015 90 90   XYZ
    dof rx rz
    limits (-90.0 90.0)
           (-45.0 45.0)
  end
  begin
     id 22 
     name lfingers
     direction 1 -4.48955e-011 -9.11303e-027   
     length 0.461504   
     axis 5.81489e-015 90 90   XYZ
    dof rx
    limits (0.0 90.0)
  end
  begin
     id 23
     name lthumb
     direction 0.707107 -6.34929e-011 0.707107   
     length 0.66263   
     axis -90 45 2.85299e-015   XYZ
    dof rx rz
    limits (-45.0 45.0)
           (-45.0 45.0)
  end
  begin
     id 24 
     name rclavicle
     direction -0.754477 0.632921 -0.173712   
     length 2.73081  
     axis 0 0 0   XYZ 
    dof ry rz
    limits (-10.0 20.0)
           (-20.0 0.0)
  end
  begin
     id 25 
     name rhumerus
     direction -1 -4.48969e-011 5.1496e-027  
     length 5.0701   
     axis -180 30 90   XYZ
    dof rx ry rz
    limits (-90.0 60.0)
           (-90.0 90.0)
           (-90.0 90.0)
  end
  begin
     id 26 
     name rradius
     direction -1 -4.48967e-011 -7.15624e-028   
     length 3.14957   
     axis -180 30 90   XYZ
    dof rx
    limits (-10.0 170.0)
  end
  begin
     id 27 
     name rwrist
     direction -1 -4.48938e-011 -2.27826e-027   
     length 1.57479   
     axis 2.17013e-015 -90 -90   XYZ
    dof ry
    limits (-180.0 0.0)
  end
  begin
     id 28
     name rhand
     direction -1 -4.49008e-011 -4.55652e-027   
     length 0.718191   
     axis 2.90745e-015 -90 -90   XYZ
    dof rx rz
    limits (-90.0 90.0)
           (-45.0 45.0)
  end
  begin
     id 29
     name rfingers
     direction -1 -4.48953e-011 -9.11303e-027   
     length 0.579024   
     axis 5.81489e-015 -90 -90   XYZ
    dof rx
    limits (0.0 90.0)
  end
  begin
     id 30
     name rthumb
     direction -0.707107 -6.34937e-011 0.707107   
     length 0.831366   
     axis -90 -45 -2.85299e-015   XYZ
    dof rx rz
    limits (-45.0 45.0)
           (-45.0 45.0)
  end
:hierarchy
  begin
    root lhipjoint rhipjoint lowerback
    lhipjoint lfemur
    lfemur ltibia
    ltibia lfoot
    lfoot ltoes
    rhipjoint rfemur
    rfemur rtibia
    rtibia rfoot
    rfoot rtoes
    lowerback upperback
    upperback thorax
    thorax lowerneck lclavicle rclavicle
    lowerneck upperneck
    upperneck head
    lclavicle lhumerus
    lhumerus lradius
    lradius lwrist
    lwrist lhand lthumb
    lhand lfingers
    rclavicle rhumerus
    rhumerus rradius
    rradius rwrist
    rwrist rhand rthumb
    rhand rfingers
  end

#!OML:ASF H:\Male1\Project 1\Capture day 1\Session 1\Male1.ASF
:FULLY-SPECIFIED
:DEGREES
37
root 18.1313 15.2072 -0.497196 12.4682 -74.3153 -15.2804
lowerback 7.20241 1.27804 4.29629
upperback 5.4288 1.77537 0.562076
thorax 1.70084 0.939535 -1.92581
lowerneck -8.79664 1.4677 5.09684
upperneck 13.7369 1.26361 -0.721564
head 5.63825 0.792069 -0.971332
rclavicle -5.48894e-014 9.64106e-015
rhumerus -33.3971 -1.8644 -87.3012
rradius 28.6034
rwrist -16.807
rhand -17.9835 -0.0737432
rfingers 7.12502
rthumb 8.28625 -29.8912
lclavicle -5.48894e-014 9.64106e-015
lhumerus -30.0332 5.37252 82.9607
lradius 26.9952
lwrist -6.33442
lhand -19.4856 11.2253
lfingers 7.12502
lthumb 6.83638 41.0949
rfemur -2.47978 10.3005 32.6983
rtibia 24.8629
rfoot -26.6921 -25.7692
rtoes -16.4541
lfemur -24.763 -1.35845 -17.144
ltibia 66.8236
lfoot -12.9945 11.8631
ltoes -15.8086
38
root 17.8191 15.2131 -0.433509 12.4971 -74.5512 -15.3403
lowerback 7.29736 1.41507 4.22105
upperback 5.47237 1.95593 0.437867
thorax 1.70722 1.03003 -2.023
lowerneck -8.84068 1.44457 5.03605
upperneck 13.8896 1.20524 -0.525817
head 5.69081 0.775503 -0.904148
rclavicle -3.22031e-014 4.96962e-015
rhumerus -33.0115 -1.13559 -87.7169
rradius 29.3004
rwrist -17.3273
rhand -17.9468 -0.317634
rfingers 7.12502
rthumb 8.32167 -30.1337
lclavicle -3.22031e-014 4.96962e-015
lhumerus -30.6323 6.92801 81.7487
lradius 26.4257
lwrist -6.78539
lhand -19.6414 11.2771
lfingers 7.12502
lthumb 6.686 41.1516
rfemur -0.110221 10.7799 33.1626
rtibia 23.1865
rfoot -27.2049 -26.2851
rtoes -16.1185
lfemur -26.6528 -1.84848 -17.1122
ltibia 63.6941
lfoot -14.2269 13.2135
ltoes -15.4583
39
root 17.5013 15.2292 -0.368941 12.787 -74.7889 -15.6222
lowerback 7.31662 1.54468 4.14806
upperback 5.50247 2.12404 0.333759
thorax 1.74021 1.11467 -2.09821
lowerneck -8.88867 1.42731 4.9768
upperneck 14.0449 1.15283 -0.324408
head 5.74529 0.762492 -0.834916
rclavicle 7.13637e-014 -9.74045e-015
rhumerus -32.6377 -0.331977 -88.1548
rradius 30.0808
rwrist -17.8752
rhand -17.9018 -0.523954
rfingers 7.12502
rthumb 8.36514 -30.3383
lclavicle 7.13637e-014 -9.74045e-015
lhumerus -31.273 8.40016 80.545
lradius 25.9263
lwrist -7.07245
lhand -19.8494 11.448
lfingers 7.12502
lthumb 6.4852 41.3288
rfemur 2.57751 11.2391 33.6921
rtibia 20.8266
rfoot -27.3132 -26.8786
rtoes -15.6957
lfemur -28.1407 -2.38618 -16.9014
ltibia 59.8484
lfoot -15.2299 14.5691
ltoes -14.5095
40
root 17.1799 15.2474 -0.303081 13.3888 -75.0262 -16.1895
lowerback 7.25767 1.66908 4.10036
upperback 5.52966 2.28344 0.246995
thorax 1.8135 1.19631 -2.16653
lowerneck -8.93778 1.41644 4.93293
upperneck 14.1747 1.10554 -0.115196
head 5.79236 0.753261 -0.765266
rclavicle -6.52511e-014 1.31198e-014
rhumerus -32.2598 0.49606 -88.5994
rradius 30.911
rwrist -18.4005
rhand -17.7539 -0.84848
rfingers 7.12502
rthumb 8.50788 -30.6571
lclavicle -6.52511e-014 1.31198e-014
lhumerus -31.9393 9.72362 79.3669
lradius 25.4853
lwrist -7.26602
lhand -20.0427 11.6674
lfingers 7.12502
lthumb 6.29861 41.5538
rfemur 5.62561 11.5997 34.2798
rtibia 17.6968
rfoot -26.9192 -27.4981
rtoes -15.214
lfemur -29.2819 -3.02773 -16.4875
ltibia 55.4931
lfoot -16.017 15.8445
ltoes -13.3884
41
root 16.8576 15.2603 -0.235393 14.2749 -75.258 -17.0375
lowerback 7.14424 1.78488 4.07683
upperback 5.56914 2.42963 0.180816
thorax 1.92939 1.27255 -2.22381
lowerneck -9.00012 1.41188 4.90119
upperneck 14.2661 1.06469 0.0956277
head 5.83011 0.747781 -0.696451
rclavicle 4.72611e-014 1.19271e-015
rhumerus -31.8516 1.32451 -89.0223
rradius 31.7576
rwrist -18.8504
rhand -17.5602 -1.13319
rfingers 7.12502
rthumb 8.69474 -30.9341
lclavicle 4.72611e-014 1.19271e-015
lhumerus -32.5937 10.9074 78.2301
lradius 25.0673
lwrist -7.51345
lhand -20.1324 11.8709
lfingers 7.12502
lthumb 6.21195 41.7599
rfemur 9.11506 11.7943 34.8991
rtibia 13.668
rfoot -25.9248 -28.1099
rtoes -14.6979
lfemur -30.1214 -3.87247 -15.8607
ltibia 50.8838
lfoot -16.6718 16.9727
ltoes -12.2666
42
root 16.5372 15.2635 -0.165275 15.3954 -75.4742 -18.1445
lowerback 7.02144 1.88636 4.07341
upperback 5.63271 2.55562 0.143716
thorax 2.07417 1.33916 -2.25985
lowerneck -9.08657 1.41208 4.85284
upperneck 14.317 1.03119 0.3158
head 5.85933 0.745569 -0.621215
rclavicle -4.00551e-014 1.98785e-015
rhumerus -31.411 2.15395 -89.3998
rradius 32.6264
rwrist -19.2382
rhand -17.3124 -1.402
rfingers 7.12502
rthumb 8.93391 -31.1928
lclavicle -4.00551e-014 1.98785e-015
lhumerus -33.1971 11.9559 77.1721
lradius 24.6434
lwrist -7.90559
lhand -20.0645 12.0015
lfingers 7.12502
lthumb 6.27758 41.8885
rfemur 13.3741 10.8501 35.2968
rtibia 8.07092
rfoot -23.7217 -27.8221
rtoes -14.1974
lfemur -30.726 -5.05566 -14.9996
ltibia 46.2952
lfoot -17.227 17.9396
ltoes -11.7809
43
root 16.2199 15.2552 -0.0915319 16.7168 -75.68 -19.5055
lowerback 6.92381 1.97579 4.1071
upperback 5.72815 2.66584 0.131762
thorax 2.2383 1.39868 -2.28958
lowerneck -9.19169 1.41631 4.78536
upperneck 14.3251 1.00531 0.543428
head 5.87837 0.746413 -0.539779
rclavicle -4.88016e-014 5.56597e-015
rhumerus -30.952 3.01758 -89.7466
rradius 33.5072
rwrist -19.6515
rhand -17.1242 -1.60262
rfingers 7.12502
rthumb 9.1155 -31.3856
lclavicle -4.88016e-014 5.56597e-015
lhumerus -33.725 12.8678 76.2114
lradius 24.1946
lwrist -8.49739
lhand -19.8339 12.022
lfingers 7.12502
lthumb 6.50014 41.9022
rfemur 18.9367 9.91831 35.5486
rtibia 3.81667e-014
rfoot -20.0592 -27.7325
rtoes -13.8251
lfemur -31.1338 -6.68137 -13.8831
ltibia 42.0065
lfoot -17.8059 18.7454
ltoes -11.6515
44
root 15.9062 15.2369 -0.0134522 18.251 -75.8903 -21.1341
lowerback 6.86577 2.05965 4.19678
upperback 5.84902 2.77046 0.137421
thorax 2.40939 1.45676 -2.33255
lowerneck -9.29761 1.42384 4.70788
upperneck 14.2935 0.988246 0.762616
head 5.88513 0.750088 -0.458689
rclavicle 2.0773e-014 -3.97569e-015
rhumerus -30.5204 3.87314 -90.065
rradius 34.4288
rwrist -20.0959
rhand -17.0986 -1.71628
rfingers 7.12502
rthumb 9.14017 -31.4982
lclavicle 2.0773e-014 -3.97569e-015
lhumerus -34.1654 13.685 75.3389
lradius 23.701
lwrist -9.32484
lhand -19.4736 11.8875
lfingers 7.12502
lthumb 6.84801 41.7567
rfemur 20.2922 9.00998 35.863
rtibia 2.54444e-014
rfoot -20.4047 -27.0209
rtoes -13.7888
lfemur -31.3978 -8.73115 -12.523
ltibia 38.269
lfoot -18.4222 19.4338
ltoes -11.3575
45
root 15.5961 15.212 0.0696399 20.0083 -76.1235 -23.0194
lowerback 6.83382 2.14663 4.34534
upperback 5.97959 2.88148 0.152816
thorax 2.58027 1.51981 -2.39886
lowerneck -9.38331 1.43606 4.63619
upperneck 14.2413 0.983889 0.948159
head 5.88235 0.757492 -0.388322
rclavicle 1.5704e-014 -1.39149e-014
rhumerus -30.1449 4.69749 -90.3595
rradius 35.3753
rwrist -20.559
rhand -17.2557 -1.74486
rfingers 7.12502
rthumb 8.98864 -31.5334
lclavicle 1.5704e-014 -1.39149e-014
lhumerus -34.5302 14.4321 74.5506
lradius 23.1754
lwrist -10.3374
lhand -19.0068 11.5954
lfingers 7.12502
lthumb 7.29862 41.4495
rfemur 21.6619 8.15994 36.1304
rtibia -6.36111e-014
rfoot -20.4068 -26.3489
rtoes -14.3492
lfemur -31.5632 -11.0004 -11.0161
ltibia 35.2775
lfoot -19.1194 19.9436
ltoes -10.5997
46
root 15.2877 15.185 0.158861 21.8735 -76.3824 -25.0258
lowerback 6.80531 2.2355 4.53528
upperback 6.10653 2.99668 0.162781
thorax 2.74954 1.58674 -2.49368
lowerneck -9.43019 1.45471 4.59245
upperneck 14.1968 0.99513 1.07346
head 5.87592 0.769387 -0.340545
rclavicle 2.16675e-014 -1.35174e-014
rhumerus -29.8354 5.46632 -90.6339
rradius 36.2937
rwrist -21.0044
rhand -17.5546 -1.65641
rfingers 7.12502
rthumb 8.70019 -31.4571
lclavicle 2.16675e-014 -1.35174e-014
lhumerus -34.8473 15.1454 73.8263
lradius 22.647
lwrist -11.4826
lhand -18.4505 11.2582
lfingers 7.12502
lthumb 7.83556 41.093
rfemur 23.0325 7.3759 36.2887
rtibia -3.49861e-014
rfoot -19.995 -25.6853
rtoes -15.7208
lfemur -31.6228 -13.094 -9.5982
ltibia 33.135
lfoot -19.7437 20.1459
ltoes -9.77403
